# xmcd
#
# Track frame offsets: 
#        150
#        10063
#        23391
#        32738
#        44372
#        54834
#        64124
#        74749
#        86730
#        97167
#
# Disc length: 1456 seconds
#
# Revision: 0
# Processed by: cddbd v1.5.2PL0 Copyright (c) Steve Scherf et al.
# Submitted via: ExactAudioCopy v0.99pb4
#
DISCID=7d05ae0a
DTITLE=Various Artist - Greatest Hits Collection
DYEAR=1993
DGENRE=Various
TTITLE0=Bill Haley and His Comets - (We're Gonna) Rock Around the Cloc
TTITLE0=k
TTITLE1=Waylon Jennings - Good Hearted Woman
TTITLE2=Charley Pride - Kiss An Angel Good Morning
TTITLE3=Paul Anka - Put Your Head On My Shoulder
TTITLE4=Jim Reeves - Hell Have To Go
TTITLE5=Elvis Presley - Don't Be Cruel
TTITLE6=Everly Brothers - Bye Bye Love
TTITLE7=Eddy Arnold - Make the World Go Away
TTITLE8=Neil Sedaka - Breaking Up Is Hard To do
TTITLE9=The Tokens - The Lion Sleeps Tonight (Wimoweh)
EXTD=
EXTT0=
EXTT1=
EXTT2=
EXTT3=
EXTT4=
EXTT5=
EXTT6=
EXTT7=
EXTT8=
EXTT9=
PLAYORDER=
